<svg width="259" height="84" viewBox="0 0 259 84" fill="none" xmlns="http://www.w3.org/2000/svg">
    <path d="M190.953 69.8296C190.953 69.8296 191.091 70.0071 191.355 70.342C191.626 70.6721 191.981 71.1685 192.592 71.7655C193.161 72.3815 193.919 73.0816 194.859 73.8409C195.805 74.5953 196.934 75.4238 198.294 76.2129C199.62 77.0411 201.191 77.8055 202.906 78.5483C204.642 79.2568 206.52 79.9737 208.579 80.5008C209.591 80.7987 210.66 81.0134 211.72 81.2677C212.802 81.4678 213.897 81.7079 215.022 81.8393C215.584 81.9125 216.146 81.9906 216.715 82.0639C217.284 82.1173 217.854 82.1657 218.43 82.2193C218.999 82.2777 219.576 82.3014 220.153 82.3301L221.022 82.3707L221.456 82.391L221.565 82.3936L221.727 82.3975L221.938 82.4025C224.071 82.4235 226.559 82.3534 228.766 82.1123C231.013 81.8771 233.196 81.5109 235.246 81.0221C236.284 80.8029 237.269 80.5128 238.233 80.2321C239.178 79.926 240.109 79.6246 240.98 79.2869C241.844 78.9441 242.701 78.626 243.464 78.2459C243.849 78.0609 244.24 77.891 244.605 77.7005C244.963 77.5099 245.321 77.3193 245.665 77.1333C247.048 76.3946 248.194 75.6105 249.169 74.8919C250.131 74.1631 250.908 73.4946 251.486 72.9059C252.104 72.3432 252.489 71.8445 252.769 71.5226C253.042 71.1955 253.188 71.0198 253.188 71.0198C253.286 70.9027 253.236 70.7521 253.074 70.6785C252.94 70.6156 252.763 70.6313 252.659 70.7135L252.645 70.7281C252.645 70.7281 252.452 70.8678 252.092 71.138C251.739 71.4084 251.22 71.7993 250.509 72.2603C249.832 72.7371 248.923 73.258 247.904 73.8411C246.851 74.4085 245.641 75.0069 244.261 75.5914C243.911 75.7324 243.561 75.8784 243.198 76.029C242.834 76.1747 242.444 76.2998 242.067 76.4402C241.306 76.7257 240.492 76.9801 239.657 77.244C237.973 77.7465 236.156 78.1861 234.245 78.5488C232.34 78.9365 230.31 79.157 228.254 79.3419C227.737 79.3794 227.22 79.4119 226.696 79.4491C226.172 79.4864 225.669 79.4844 225.152 79.5069C224.159 79.5629 223.012 79.5306 221.911 79.5292L221.708 79.5244L221.681 79.5237C221.782 79.5261 221.694 79.524 221.708 79.5244L221.66 79.5232L221.558 79.5208L221.164 79.5114L220.371 79.4726C219.841 79.45 219.312 79.4374 218.79 79.3851C218.268 79.3428 217.746 79.3004 217.223 79.2631C216.702 79.2059 216.187 79.1438 215.672 79.0867L214.899 78.9986L214.141 78.8809C213.634 78.8041 213.133 78.7275 212.632 78.6558C211.645 78.458 210.649 78.3048 209.711 78.0634C207.805 77.6346 206.011 77.1039 204.339 76.5512C203.524 76.248 202.702 75.9745 201.956 75.653C201.572 75.4995 201.202 75.3513 200.832 75.203C200.476 75.0402 200.126 74.8776 199.79 74.7252C198.426 74.0952 197.232 73.4444 196.194 72.8421C195.657 72.5555 195.23 72.2267 194.781 71.9571C194.333 71.6875 193.972 71.4151 193.632 71.173C192.943 70.6985 192.417 70.2727 192.07 69.9907C191.71 69.7082 191.516 69.5593 191.516 69.5593C191.39 69.4567 191.173 69.4515 191.034 69.5478C190.917 69.6296 190.9 69.7537 190.973 69.855L190.953 69.8296Z" fill="#39DA00"/>
    <path d="M247.877 72.3424C246.824 72.9097 245.614 73.5081 244.234 74.0926C243.885 74.2336 243.535 74.3796 243.171 74.5303C242.807 74.6759 242.417 74.801 242.04 74.9414C241.814 75.0256 241.574 75.1045 241.335 75.1884C243.6 71.9267 245.718 68.8606 246.894 66.8176C248.744 63.6007 249.434 66.8781 249.84 71.1943C249.268 71.5541 248.607 71.9316 247.883 72.3475L247.877 72.3424Z" fill="#39DA00"/>
    <path d="M201.929 74.1443C201.546 73.9908 201.175 73.8426 200.805 73.6943C200.449 73.5315 200.1 73.3688 199.764 73.2164C198.4 72.5865 197.206 71.9357 196.167 71.3334C195.872 71.177 195.618 71.0067 195.364 70.8413C196.264 66.4418 197.337 63.0072 198.845 66.4386C199.728 68.4362 201.335 71.4069 203.093 74.6052C202.689 74.4562 202.299 74.3075 201.929 74.1493L201.929 74.1443Z" fill="#39DA00"/>
    <path d="M38.4082 51.6628C38.4082 52.2122 38.2584 52.5618 37.6591 52.7116C35.2619 53.3608 32.8647 54.0101 30.5174 54.6593C29.7183 54.8591 29.7183 54.8591 29.7183 54.06C29.7183 49.5153 29.7682 44.9705 29.7682 40.4258C29.8182 38.4281 29.8182 36.3805 29.8182 34.3828C29.7682 34.3828 29.7183 34.3828 29.7183 34.3828C28.9692 36.7301 26.0226 47.4177 25.1736 50.3144C25.0237 50.8138 24.6741 50.8138 24.3245 50.8637C22.1271 50.9137 19.7798 51.4131 18.0818 52.2621C17.5823 52.5118 17.4825 52.5118 17.3826 51.9125C17.0829 49.2156 15.8843 41.5745 15.6346 40.276C14.9853 42.4235 11.6892 56.2075 10.3907 60.952C10.141 61.8011 9.79136 62.0508 9.09216 62.2006C6.94465 62.7 4.34765 63.3493 2.20014 63.8986C2.05031 63.9486 1.90049 63.9985 1.75066 63.9985C1.10141 64.0984 0.951584 63.9486 1.2013 63.3493C2.00037 60.8022 9.29193 35.3317 12.4882 25.0935C12.688 24.3943 13.0376 24.1446 13.6369 24.0447C15.7345 23.5453 18.2316 22.8961 20.2792 22.2468C20.7786 22.0471 21.0284 22.097 21.0783 22.7463C21.4778 26.6417 22.227 30.5372 22.6764 34.4327C22.6764 34.5826 22.7264 34.7324 22.7763 34.9321C22.9761 34.7324 23.026 34.5326 23.076 34.3328L28.7694 18.5511C29.0191 17.9518 29.3687 17.6022 29.968 17.4524C31.716 16.903 34.4628 16.3037 36.1608 15.8043C36.9599 15.5546 37.0099 15.5546 37.1097 16.3536C37.4094 19.9994 38.3084 51.513 38.4082 51.6628ZM53.7194 28.3897C55.2177 28.989 56.4662 29.888 57.515 31.0866C60.112 33.8834 61.1608 37.2794 61.2607 40.9252C61.2108 43.9717 60.5116 46.7685 58.7136 49.1657C56.5661 52.0623 53.4198 53.1611 50.3234 53.1611C47.177 53.1611 44.1305 52.0623 41.983 49.1657C40.1351 46.7685 39.4859 43.9717 39.386 40.9252C39.4859 37.2794 40.5846 33.8834 43.1816 31.0866C44.2304 29.888 45.479 28.989 46.9772 28.3897C48.1259 27.9402 49.2246 27.7405 50.3234 27.7904C51.4221 27.7405 52.5708 27.9402 53.7194 28.3897ZM50.3234 46.5687C52.2711 46.5687 54.3687 44.0216 54.3687 40.276C54.3687 36.7301 52.6706 34.4327 50.3234 34.4327C47.6764 34.4327 46.278 37.9786 46.278 40.4258C46.278 43.9717 47.9761 46.5687 50.3234 46.5687ZM80.4007 28.14C81.849 28.2898 84.0464 29.5384 83.6469 32.485C82.5482 39.6767 81.8989 47.0182 83.597 51.3132C83.597 51.3132 83.8467 51.7627 83.2973 52.2621C82.2485 52.7116 80.8501 53.211 79.7514 53.4108C78.8525 53.6105 78.0534 53.7104 77.2044 53.5107C76.9546 53.4607 76.7049 53.3608 76.5052 52.8614C75.4564 50.4142 75.0568 47.7673 74.8571 45.0205C74.6074 41.6244 74.7072 38.2783 75.0069 34.8822C73.4587 35.8811 71.3611 38.1285 69.713 40.3759C69.5632 44.7208 69.8129 48.7661 70.8617 51.3631C70.8617 51.3631 71.1614 51.8126 70.612 52.2621C69.5632 52.7615 68.2148 53.3109 67.0661 53.5107C66.2171 53.7604 65.418 53.8602 64.569 53.7104C64.2693 53.6605 64.0696 53.5107 63.8198 53.0612C62.7711 50.6639 62.2716 47.9671 62.0219 45.2702C61.5225 39.9264 61.8222 34.5826 62.5214 29.2387C62.7211 28.3398 63.2205 28.0901 64.1195 28.0901C64.9685 28.14 68.864 27.8903 69.763 27.8903C70.3623 27.8903 70.8118 28.0401 70.9616 28.4896C70.8118 29.4385 70.6619 30.4374 70.562 31.4362C72.5098 29.6383 74.8071 28.3897 77.1544 28.2399C77.2543 28.2399 77.3042 28.19 77.4041 28.19C77.504 28.19 77.6538 28.14 77.8037 28.14C78.5029 28.0401 79.202 28.0401 80.4007 28.14ZM85.8865 53.7604C85.1873 53.4108 85.1873 53.4108 85.5369 52.8614C86.3859 51.513 86.9353 50.1645 86.7355 48.6163C86.7355 48.4665 86.8354 48.3666 86.9852 48.3167C87.1351 48.1668 87.2849 48.3167 87.3848 48.3666C88.3836 48.916 91.8296 49.4653 92.6287 47.6175C93.1781 46.3689 91.8796 44.8706 90.5811 44.0716C86.4359 41.3248 84.1385 37.4293 85.2872 33.4339C86.7355 28.3398 91.53 26.1423 97.8726 26.2921C99.3709 26.3421 101.968 26.8415 103.316 27.4408C103.716 27.6406 103.916 27.8903 103.766 28.3398C103.117 29.9879 102.567 31.6859 101.968 33.3839C101.818 33.6836 101.518 33.7835 101.069 33.5338C99.8204 33.0343 95.7251 32.5349 94.7263 34.9821C93.9771 37.3294 97.3233 38.6778 100.57 42.4734C103.566 45.9194 103.017 50.4642 99.9203 53.1611C96.1247 56.5072 88.1339 54.8591 85.8865 53.7604ZM120.582 23.2457C120.782 25.1435 120.782 23.4954 120.333 25.1435C120.233 25.4931 120.033 25.6928 119.583 25.593L114.24 24.8938C112.891 32.485 111.193 44.9705 113.69 50.9636C113.69 50.9636 113.94 51.4131 113.391 51.8626C112.392 52.362 111.043 52.9113 109.895 53.1611C108.996 53.3608 108.247 53.4607 107.398 53.3109C107.098 53.2609 106.848 53.1611 106.648 52.6616C105.55 50.2644 105.1 47.6175 104.801 44.8706C104.301 39.5268 104.651 34.183 105.3 28.8392C105.5 27.291 105.749 25.6928 106.049 24.1446C101.355 23.845 96.3104 23.795 92.315 24.4443C90.7668 24.694 90.7168 24.2945 90.4172 23.8949C90.1675 23.5453 90.1175 22.8961 90.1175 22.3967C90.0676 21.9472 90.1675 21.7474 91.2662 21.3479C92.1152 21.1481 92.9642 20.9983 93.8632 20.8484C98.1582 20.2491 102.553 20.0993 106.898 20.2991C106.948 20.0494 106.998 19.7997 107.098 19.5999C107.298 18.7509 107.997 18.3513 108.646 18.3014C110.644 18.2015 113.291 18.1516 114.939 18.7009C115.238 18.8008 115.388 19.0006 115.288 19.5C115.238 19.8995 115.139 20.399 114.989 20.9983C116.437 21.198 117.835 21.4478 119.234 21.6975C120.083 21.8972 120.482 22.5465 120.582 23.2457ZM135.318 42.823C135.668 42.6732 135.718 42.823 135.718 43.0727C135.418 48.6663 130.573 52.8614 126.179 53.0612C121.434 53.3109 117.439 51.3631 115.591 46.7685C115.341 46.1691 115.141 45.5698 114.991 44.9206C114.842 44.1215 114.692 43.3724 114.642 42.5733C114.542 37.5291 116.09 33.2341 120.086 30.0878C122.882 27.9402 126.678 27.4908 129.874 28.4397C132.271 29.1389 134.119 31.1865 134.469 33.4838C134.868 36.2306 133.97 39.1772 131.772 40.9752C129.475 42.823 126.428 43.0727 123.482 42.4734C123.082 42.3735 123.032 42.4734 123.032 42.873C123.082 43.9217 123.582 45.2702 124.63 45.9694C125.929 46.8184 127.527 46.6186 128.726 45.6198C129.425 45.0205 129.924 44.0716 130.224 43.2226C130.324 42.873 130.474 42.823 130.773 42.9229C132.271 43.4223 133.82 43.4723 135.318 42.823ZM123.182 36.83C123.032 37.629 123.082 38.6778 123.781 39.1273C124.031 39.2771 124.281 39.377 124.58 39.377C125.829 39.5768 127.177 39.0774 127.877 38.0286C128.276 37.4293 128.476 36.2806 128.276 35.5315C128.026 34.4827 126.928 34.0332 125.929 34.183C124.63 34.4327 123.482 35.5315 123.182 36.83ZM153.478 28.0901C155.476 28.2399 157.423 29.5883 157.223 32.5849C157.124 33.6836 157.124 33.7835 156.974 34.8822C156.824 35.7312 156.275 36.5303 155.176 37.0297C154.127 37.5791 151.68 38.2283 150.631 38.2283C150.182 38.2283 148.284 38.3282 148.434 36.4804C148.434 36.3805 148.484 36.2806 148.434 36.2306L148.583 34.9821C147.035 35.931 145.587 37.3793 144.239 39.6767C144.089 44.0716 144.239 48.7661 145.287 51.3631C145.287 51.3631 145.587 51.8126 145.038 52.2621C143.989 52.7615 142.64 53.3109 141.542 53.5107C140.643 53.7604 139.894 53.8602 138.995 53.7104C138.745 53.6605 138.495 53.5107 138.295 53.0612C137.197 50.6639 136.697 47.9671 136.448 45.2702C135.948 39.9264 136.248 34.5826 136.947 29.2387C137.147 28.3398 137.646 28.0901 138.545 28.0901C139.394 28.14 143.29 27.8903 144.189 27.8903C144.838 27.8903 145.287 28.0401 145.387 28.4896L144.988 31.4362C146.935 29.6383 150.182 27.7904 153.478 28.0901Z" fill="#014D81"/>
    <path d="M158.824 41.6092C158.824 39.1783 159.322 37.0257 160.318 35.1513C161.343 33.2769 162.719 31.8271 164.447 30.802C166.204 29.7477 168.152 29.2205 170.29 29.2205C171.872 29.2205 173.424 29.572 174.947 30.2749C176.499 30.9485 177.729 31.8564 178.637 32.9986V21.3128H183.689V53.8222H178.637V50.1759C177.817 51.3474 176.675 52.3139 175.21 53.0754C173.775 53.8369 172.12 54.2176 170.246 54.2176C168.137 54.2176 166.204 53.6904 164.447 52.6361C162.719 51.5524 161.343 50.0587 160.318 48.155C159.322 46.222 158.824 44.0401 158.824 41.6092ZM178.637 41.6971C178.637 40.0277 178.286 38.5779 177.583 37.3479C176.909 36.1178 176.016 35.1806 174.903 34.5362C173.79 33.8919 172.589 33.5697 171.3 33.5697C170.012 33.5697 168.811 33.8919 167.698 34.5362C166.585 35.1513 165.677 36.0738 164.974 37.3039C164.301 38.5047 163.964 39.9398 163.964 41.6092C163.964 43.2786 164.301 44.743 164.974 46.0024C165.677 47.2618 166.585 48.2283 167.698 48.9019C168.84 49.5462 170.041 49.8684 171.3 49.8684C172.589 49.8684 173.79 49.5462 174.903 48.9019C176.016 48.2575 176.909 47.3203 177.583 46.0903C178.286 44.8309 178.637 43.3665 178.637 41.6971ZM186.841 41.6092C186.841 39.1783 187.338 37.0257 188.334 35.1513C189.359 33.2769 190.736 31.8271 192.464 30.802C194.221 29.7477 196.154 29.2205 198.263 29.2205C200.166 29.2205 201.821 29.6012 203.227 30.3627C204.662 31.0949 205.804 32.0175 206.654 33.1304V29.6159H211.706V53.8222H206.654V50.2198C205.804 51.362 204.647 52.3139 203.183 53.0754C201.719 53.8369 200.049 54.2176 198.175 54.2176C196.095 54.2176 194.192 53.6904 192.464 52.6361C190.736 51.5524 189.359 50.0587 188.334 48.155C187.338 46.222 186.841 44.0401 186.841 41.6092ZM206.654 41.6971C206.654 40.0277 206.302 38.5779 205.599 37.3479C204.926 36.1178 204.032 35.1806 202.92 34.5362C201.807 33.8919 200.606 33.5697 199.317 33.5697C198.028 33.5697 196.828 33.8919 195.715 34.5362C194.602 35.1513 193.694 36.0738 192.991 37.3039C192.317 38.5047 191.981 39.9398 191.981 41.6092C191.981 43.2786 192.317 44.743 192.991 46.0024C193.694 47.2618 194.602 48.2283 195.715 48.9019C196.857 49.5462 198.058 49.8684 199.317 49.8684C200.606 49.8684 201.807 49.5462 202.92 48.9019C204.032 48.2575 204.926 47.3203 205.599 46.0903C206.302 44.8309 206.654 43.3665 206.654 41.6971ZM222.37 33.7015V47.1007C222.37 48.0086 222.575 48.6676 222.985 49.0776C223.424 49.4583 224.156 49.6487 225.181 49.6487H228.256V53.8222H224.303C222.047 53.8222 220.319 53.295 219.119 52.2407C217.918 51.1863 217.317 49.473 217.317 47.1007V33.7015H214.462V29.6159H217.317V23.5973H222.37V29.6159H228.256V33.7015H222.37ZM229.446 41.6092C229.446 39.1783 229.944 37.0257 230.939 35.1513C231.964 33.2769 233.341 31.8271 235.069 30.802C236.826 29.7477 238.759 29.2205 240.868 29.2205C242.772 29.2205 244.426 29.6012 245.832 30.3627C247.267 31.0949 248.409 32.0175 249.259 33.1304V29.6159H254.311V53.8222H249.259V50.2198C248.409 51.362 247.253 52.3139 245.788 53.0754C244.324 53.8369 242.654 54.2176 240.78 54.2176C238.701 54.2176 236.797 53.6904 235.069 52.6361C233.341 51.5524 231.964 50.0587 230.939 48.155C229.944 46.222 229.446 44.0401 229.446 41.6092ZM249.259 41.6971C249.259 40.0277 248.907 38.5779 248.204 37.3479C247.531 36.1178 246.638 35.1806 245.525 34.5362C244.412 33.8919 243.211 33.5697 241.922 33.5697C240.634 33.5697 239.433 33.8919 238.32 34.5362C237.207 35.1513 236.299 36.0738 235.596 37.3039C234.922 38.5047 234.586 39.9398 234.586 41.6092C234.586 43.2786 234.922 44.743 235.596 46.0024C236.299 47.2618 237.207 48.2283 238.32 48.9019C239.462 49.5462 240.663 49.8684 241.922 49.8684C243.211 49.8684 244.412 49.5462 245.525 48.9019C246.638 48.2575 247.531 47.3203 248.204 46.0903C248.907 44.8309 249.259 43.3665 249.259 41.6971Z" fill="#39DA00"/>
</svg>
